<svg width="50" height="50" viewBox="0 0 50 50" fill="none" xmlns="http://www.w3.org/2000/svg">
<path d="M33.1 9C29.968 9 26.962 10.4567 25 12.7586C23.038 10.4567 20.032 9 16.9 9C11.356 9 7 13.352 7 18.891C7 25.6888 13.12 31.2278 22.39 39.6441L25 42L27.61 39.6262C36.88 31.2278 43 25.6888 43 18.891C43 13.352 38.644 9 33.1 9ZM25.18 36.9646L25 37.1444L24.82 36.9646C16.252 29.2136 10.6 24.0883 10.6 18.891C10.6 15.2943 13.3 12.5967 16.9 12.5967C19.672 12.5967 22.372 14.3771 23.326 16.8409H26.692C27.628 14.3771 30.328 12.5967 33.1 12.5967C36.7 12.5967 39.4 15.2943 39.4 18.891C39.4 24.0883 33.748 29.2136 25.18 36.9646Z" fill="#1862AB"/>
</svg>
