<svg width="189" height="31" viewBox="0 0 189 31" fill="none" xmlns="http://www.w3.org/2000/svg">
<path fill-rule="evenodd" clip-rule="evenodd" d="M165.169 3C164.315 3 163.623 3.61819 163.622 4.38076L163.593 23.7114C163.592 24.4739 164.283 25.0921 165.136 25.0921H176.705L176.717 16.8054H173.632L173.637 13.3511H176.722L176.725 11.3049C176.729 8.48763 178.525 6.44878 181.314 6.44878H184.46L184.454 9.90567H183.07C181.024 9.90567 180.6 10.927 180.599 12.0045L180.597 13.3511H184.449L183.691 16.8054H180.594L180.582 25.0921H186.766C187.619 25.0921 188.312 24.4739 188.313 23.7114L188.341 4.38076C188.342 3.61819 187.651 3 186.798 3H165.169Z" fill="white"/>
<g clip-path="url(#clip0_1_89)">
<path d="M151.288 8.86593C151.288 8.86593 151.048 7.05823 150.302 6.2645C149.357 5.21983 148.299 5.2147 147.814 5.15325C144.341 4.88696 139.125 4.88696 139.125 4.88696H139.116C139.116 4.88696 133.9 4.88696 130.426 5.15325C129.941 5.2147 128.883 5.21983 127.936 6.2645C127.188 7.05823 126.948 8.86593 126.948 8.86593C126.948 8.86593 126.693 10.9911 126.691 13.1112L126.688 15.0981C126.686 17.2182 126.93 19.3433 126.93 19.3433C126.93 19.3433 127.171 21.151 127.912 21.9448C128.857 22.9894 130.099 22.9536 130.652 23.0663C132.641 23.266 139.098 23.3275 139.098 23.3275C139.098 23.3275 144.318 23.3172 147.792 23.056C148.277 22.9946 149.335 22.9894 150.282 21.9448C151.03 21.151 151.275 19.3433 151.275 19.3433C151.275 19.3433 151.525 17.2233 151.528 15.0981L151.53 13.1112C151.533 10.9911 151.288 8.86593 151.288 8.86593ZM136.539 17.5101L136.548 10.1411L143.253 13.8383L136.539 17.5101Z" fill="white"/>
</g>
<g clip-path="url(#clip1_1_89)">
<path d="M7.8212 23.7768C17.1924 23.7768 22.3295 15.5797 22.3383 8.47336C22.3386 8.24291 22.334 8.00737 22.3246 7.77692C23.3229 7.01558 24.1848 6.07256 24.8697 4.99216C23.9403 5.42838 22.9538 5.7133 21.9437 5.83714C23.0079 5.16435 23.8054 4.10746 24.1883 2.86237C23.1872 3.48812 22.0927 3.92954 20.9517 4.16769C20.1842 3.30568 19.1687 2.73493 18.0622 2.54367C16.9558 2.35242 15.8199 2.55132 14.8304 3.10962C13.8408 3.66792 13.0526 4.55453 12.5877 5.63235C12.1227 6.71018 12.0069 7.91921 12.2581 9.07253C10.2327 8.96525 8.25189 8.40984 6.44398 7.44235C4.63605 6.47486 3.04144 5.11685 1.76349 3.4564C1.11147 4.64033 0.910669 6.04132 1.2019 7.37462C1.49313 8.70792 2.25453 9.87347 3.33136 10.6344C2.52227 10.6073 1.73115 10.3774 1.02337 9.96354L1.02329 10.0301C1.02103 11.2726 1.42647 12.477 2.17069 13.4385C2.91491 14.4001 3.95199 15.0595 5.10561 15.3047C4.35582 15.5211 3.56911 15.5527 2.80638 15.3969C3.13068 16.4654 3.76306 17.4 4.61526 18.0701C5.46745 18.7402 6.49695 19.1126 7.56011 19.1352C5.7533 20.6317 3.52271 21.4434 1.22752 21.4396C0.820487 21.4389 0.413888 21.4126 0.00989535 21.3607C2.33962 22.9397 5.05094 23.7783 7.8212 23.7768Z" fill="white"/>
</g>
<g clip-path="url(#clip2_1_89)">
<path d="M109.489 0.725098H88.3223C87.3084 0.725098 86.4874 1.57005 86.4861 2.61472L86.4584 25.0495C86.4571 26.0942 87.276 26.9443 88.29 26.9443H109.457C110.471 26.9443 111.297 26.0942 111.298 25.0546L111.326 2.61472C111.327 1.57005 110.503 0.725098 109.489 0.725098ZM93.8303 23.0677H90.1432L90.1586 10.5522H93.8457L93.8303 23.0677ZM92.0043 8.84692C90.8205 8.84692 89.866 7.83809 89.8676 6.59366C89.8691 5.3493 90.8261 4.34048 92.0098 4.34048C93.1888 4.34048 94.1432 5.3493 94.1417 6.59366C94.1402 7.83295 93.1832 8.84692 92.0043 8.84692ZM107.628 23.0677H103.946L103.953 16.984C103.955 15.5348 103.933 13.6657 102.041 13.6657C100.125 13.6657 99.8315 15.2481 99.8295 16.8816L99.8219 23.0677H96.1444L96.1599 10.5522H99.6918L99.6897 12.2626H99.7382C100.229 11.2794 101.434 10.2398 103.224 10.2398C106.955 10.2398 107.641 12.831 107.636 16.2006L107.628 23.0677Z" fill="white"/>
</g>
<g clip-path="url(#clip3_1_89)">
<path d="M55.9213 2.71329C59.0888 2.71329 59.4639 2.72865 60.7096 2.7901C61.8673 2.84643 62.4922 3.06152 62.9088 3.24075C63.4595 3.47631 63.8575 3.76308 64.269 4.21884C64.6853 4.67973 64.9394 5.11501 65.1517 5.7244C65.3132 6.18527 65.5068 6.88171 65.5562 8.15684C65.6101 9.53947 65.6235 9.95427 65.6192 13.4519C65.6148 16.9546 65.6004 17.3694 65.5432 18.7469C65.4906 20.0272 65.2953 20.7185 65.1326 21.1794C64.9188 21.7888 64.659 22.2292 64.2462 22.6849C63.8289 23.1458 63.4349 23.4275 62.8835 23.663C62.4665 23.8422 61.8364 24.0573 60.6833 24.1137C59.4328 24.1751 59.0577 24.1905 55.8948 24.1905C52.7272 24.1905 52.3521 24.1751 51.1065 24.1137C49.9488 24.0573 49.3239 23.8422 48.9073 23.663C48.3565 23.4275 47.9586 23.1407 47.547 22.6849C47.1308 22.224 46.8766 21.7888 46.6643 21.1794C46.5028 20.7185 46.3092 20.0221 46.2598 18.7469C46.2059 17.3643 46.1926 16.9495 46.1969 13.4519C46.2012 9.94919 46.2156 9.53439 46.2729 8.15684C46.3254 6.87658 46.5208 6.18527 46.6834 5.7244C46.8972 5.11501 47.1571 4.67461 47.5698 4.21884C47.9871 3.75796 48.3811 3.47631 48.9325 3.24075C49.3495 3.06152 49.9796 2.84643 51.1328 2.7901C52.3785 2.72865 52.7537 2.71329 55.9213 2.71329ZM55.9242 0.352539C52.7057 0.352539 52.3028 0.367902 51.0384 0.429353C49.7787 0.490804 48.9124 0.716125 48.1618 1.03874C47.3788 1.37673 46.716 1.82224 46.0575 2.55454C45.3944 3.28171 44.9906 4.01401 44.6839 4.87433C44.3911 5.70903 44.1862 6.66153 44.1289 8.05442C44.0716 9.45753 44.0571 9.90309 44.0527 13.4621C44.0483 17.0212 44.0617 17.4667 44.1155 18.8647C44.1694 20.2576 44.372 21.2152 44.6627 22.0448C44.9673 22.9103 45.3692 23.6425 46.0306 24.3697C46.6873 25.0969 47.3489 25.5475 48.1265 25.8804C48.881 26.203 49.7421 26.4283 51.0016 26.4898C52.2658 26.5512 52.6687 26.5666 55.8872 26.5666C59.1057 26.5666 59.5086 26.5512 60.773 26.4898C62.0327 26.4283 62.8989 26.203 63.6495 25.8804C64.4279 25.5475 65.0908 25.0969 65.7492 24.3697C66.4077 23.6425 66.8162 22.9103 67.1182 22.0499C67.411 21.2152 67.616 20.2627 67.6733 18.8698C67.7306 17.4718 67.745 17.0263 67.7494 13.4673C67.7538 9.90823 67.7404 9.46266 67.6866 8.06469C67.6327 6.6718 67.4302 5.71416 67.1394 4.88457C66.8487 4.014 66.4468 3.28171 65.7854 2.55454C65.1287 1.82737 64.4671 1.37673 63.6895 1.04386C62.935 0.721246 62.0739 0.495925 60.8144 0.434474C59.5456 0.367902 59.1427 0.352539 55.9242 0.352539Z" fill="white"/>
<path d="M55.9163 6.72815C52.5543 6.72815 49.8229 9.74439 49.8183 13.4622C49.8137 17.1799 52.5376 20.1962 55.8997 20.1962C59.2617 20.1962 61.9931 17.1799 61.9977 13.4622C62.0023 9.74439 59.2784 6.72815 55.9163 6.72815ZM55.9026 17.8303C53.7214 17.8303 51.9548 15.8741 51.9578 13.4622C51.9607 11.0502 53.7322 9.09399 55.9134 9.09399C58.0946 9.09399 59.8612 11.0502 59.8582 13.4622C59.8552 15.8741 58.0838 17.8303 55.9026 17.8303Z" fill="white"/>
<path d="M63.6689 6.46179C63.6678 7.33232 63.0279 8.0339 62.2452 8.0339C61.458 8.0339 60.8244 7.32724 60.8255 6.46179C60.8265 5.59122 61.4665 4.88965 62.2491 4.88965C63.0317 4.88965 63.6699 5.59634 63.6689 6.46179Z" fill="white"/>
</g>
<defs>
<clipPath id="clip0_1_89">
<rect width="24.8396" height="29.3655" fill="white" transform="matrix(1 0 -0.00123442 0.999999 126.706 1)"/>
</clipPath>
<clipPath id="clip1_1_89">
<rect width="24.8396" height="29.3655" fill="white" transform="matrix(1 0 -0.00123442 0.999999 0.0362473 0.015625)"/>
</clipPath>
<clipPath id="clip2_1_89">
<rect width="24.8396" height="29.3655" fill="white" transform="matrix(1 0 -0.00123442 0.999999 86.4885 0.725098)"/>
</clipPath>
<clipPath id="clip3_1_89">
<rect width="23.7105" height="29.3655" fill="white" transform="matrix(1 0 -0.00123442 0.999999 44.0689 0.352539)"/>
</clipPath>
</defs>
</svg>
