<svg width="18" height="19" viewBox="0 0 18 19" fill="none" xmlns="http://www.w3.org/2000/svg">
<path d="M12.5 11.755H11.71L11.43 11.485C12.41 10.345 13 8.865 13 7.255C13 3.665 10.09 0.755005 6.5 0.755005C2.91 0.755005 0 3.665 0 7.255C0 10.845 2.91 13.755 6.5 13.755C8.11 13.755 9.59 13.165 10.73 12.185L11 12.465V13.255L16 18.245L17.49 16.755L12.5 11.755V11.755ZM6.5 11.755C4.01 11.755 2 9.745 2 7.255C2 4.765 4.01 2.755 6.5 2.755C8.99 2.755 11 4.765 11 7.255C11 9.745 8.99 11.755 6.5 11.755Z" fill="black"/>
</svg>
