<svg width="48" height="48" viewBox="0 0 48 48" fill="none" xmlns="http://www.w3.org/2000/svg">
<path fill-rule="evenodd" clip-rule="evenodd" d="M24 0C37.2548 0 48 10.7452 48 24C48 37.2544 37.2556 47.9993 24.0013 48C24.0008 48 24.0005 48 24 48C10.7452 48 0 37.2548 0 24C0 10.7452 10.7452 0 24 0ZM14.0128 40.4012C12.0149 36.6583 10.6927 31.7916 10.3876 26.4H15.1961C15.5112 31.3301 16.7778 35.5776 18.4969 38.5936C19.5558 40.4513 20.6292 41.6136 21.6 42.3059V26.4H26.4V42.3059C27.3708 41.6136 28.4442 40.4513 29.5031 38.5936C31.2222 35.5776 32.4888 31.3301 32.8039 26.4H37.6124C37.3074 31.7916 35.9851 36.6583 33.9872 40.4012C39.5119 37.03 43.2 30.9456 43.2 24C43.2 17.0544 39.5119 10.9701 33.9872 7.59875C35.9851 11.3417 37.3074 16.2084 37.6124 21.6H32.8039C32.4888 16.6699 31.2222 12.4224 29.5031 9.40642C28.4442 7.54867 27.3708 6.38641 26.4 5.6941V21.6H21.6V5.6941C20.6292 6.38641 19.5558 7.54867 18.4969 9.40642C16.7778 12.4224 15.5112 16.6699 15.1961 21.6H10.3876C10.6927 16.2084 12.0149 11.3417 14.0128 7.59872C8.48809 10.9701 4.8 17.0543 4.8 24C4.8 30.9457 8.48809 37.03 14.0128 40.4012Z" fill="white"/>
</svg>
