<svg width="151" height="34" viewBox="0 0 151 34" fill="none" xmlns="http://www.w3.org/2000/svg">
<path d="M0 0H4.66074L9.39488 20.0241H9.46827L14.7529 0H19.4503L24.5882 20.0241H24.6615L29.5425 0H34.2032L26.9736 26.1853H22.3128L17.0649 6.16126H16.9915L11.6335 26.1853H6.89936L0 0Z" fill="white"/>
<path d="M50.6932 21.9679C50.6932 22.4813 50.7543 22.8481 50.8767 23.0681C51.0235 23.2881 51.2926 23.3982 51.6841 23.3982C51.8064 23.3982 51.9532 23.3982 52.1244 23.3982C52.2957 23.3982 52.4914 23.3737 52.7116 23.3248V26.2221C52.5648 26.271 52.3691 26.3199 52.1244 26.3688C51.9042 26.4421 51.6718 26.5032 51.4272 26.5521C51.1825 26.601 50.9378 26.6377 50.6932 26.6622C50.4485 26.6866 50.2406 26.6988 50.0693 26.6988C49.213 26.6988 48.5035 26.5277 47.9408 26.1854C47.3781 25.8431 47.0111 25.2441 46.8398 24.3884C46.008 25.1952 44.9804 25.782 43.7571 26.1487C42.5583 26.5155 41.3962 26.6988 40.2707 26.6988C39.4144 26.6988 38.5948 26.5766 37.812 26.3321C37.0291 26.1121 36.3318 25.782 35.7202 25.3419C35.133 24.8774 34.6559 24.3028 34.2889 23.6182C33.9464 22.9092 33.7751 22.0901 33.7751 21.161C33.7751 19.9875 33.9831 19.0339 34.3991 18.3005C34.8394 17.567 35.4022 16.9924 36.0872 16.5768C36.7967 16.1611 37.5796 15.8677 38.4358 15.6966C39.3166 15.501 40.1973 15.3543 41.0781 15.2565C41.8366 15.1098 42.5583 15.012 43.2433 14.9631C43.9284 14.8898 44.5278 14.7797 45.0416 14.633C45.5798 14.4863 45.9957 14.2663 46.2893 13.9729C46.6074 13.6551 46.7664 13.1905 46.7664 12.5793C46.7664 12.0414 46.6319 11.6013 46.3627 11.259C46.1181 10.9167 45.8 10.66 45.4086 10.4889C45.0416 10.2933 44.6257 10.171 44.1608 10.1221C43.696 10.0488 43.2556 10.0121 42.8397 10.0121C41.6653 10.0121 40.6989 10.2566 39.9405 10.7456C39.182 11.2346 38.7539 11.9925 38.656 13.0194H34.4725C34.5459 11.7969 34.8394 10.7823 35.3532 9.97543C35.867 9.16859 36.5154 8.52068 37.2983 8.0317C38.1056 7.54271 39.0108 7.20041 40.0139 7.00482C41.017 6.80922 42.0445 6.71143 43.0965 6.71143C44.0262 6.71143 44.9437 6.80922 45.849 7.00482C46.7542 7.20041 47.5616 7.51826 48.2711 7.95835C49.005 8.39844 49.5922 8.973 50.0326 9.68203C50.473 10.3666 50.6932 11.2101 50.6932 12.2125V21.9679ZM46.5095 16.6868C45.8734 17.1024 45.0905 17.3592 44.1608 17.457C43.2311 17.5303 42.3014 17.6525 41.3717 17.8237C40.9313 17.897 40.5032 18.0071 40.0873 18.1538C39.6713 18.276 39.3043 18.4594 38.9863 18.7039C38.6682 18.9239 38.4113 19.2295 38.2157 19.6207C38.0444 19.9875 37.9588 20.4398 37.9588 20.9777C37.9588 21.4422 38.0934 21.8334 38.3624 22.1512C38.6315 22.4691 38.9496 22.7258 39.3166 22.9214C39.708 23.0925 40.124 23.2148 40.5643 23.2881C41.0292 23.3615 41.4451 23.3982 41.8121 23.3982C42.2769 23.3982 42.7785 23.337 43.3167 23.2148C43.855 23.0926 44.3565 22.8847 44.8214 22.5913C45.3107 22.2979 45.7144 21.9312 46.0324 21.4911C46.3505 21.0266 46.5095 20.4642 46.5095 19.8041V16.6868Z" fill="white"/>
<path d="M53.1031 7.22485H57.6904L62.6447 21.3811H62.7181L67.5257 7.22485H71.8928L64.5164 27.2123C64.1738 28.068 63.8313 28.8871 63.4888 29.6694C63.1707 30.4518 62.7671 31.1364 62.2777 31.7232C61.8129 32.3344 61.2257 32.8112 60.5162 33.1535C59.8067 33.5202 58.9015 33.7036 57.8005 33.7036C56.8219 33.7036 55.8555 33.6302 54.9013 33.4835V29.9628C55.2438 30.0117 55.5741 30.0606 55.8922 30.1095C56.2102 30.1829 56.5405 30.2195 56.883 30.2195C57.3723 30.2195 57.776 30.1584 58.0941 30.0362C58.4121 29.9139 58.669 29.7306 58.8648 29.4861C59.0849 29.266 59.2684 28.9971 59.4152 28.6792C59.562 28.3614 59.6966 27.9946 59.8189 27.579L60.296 26.112L53.1031 7.22485Z" fill="white"/>
<path d="M73.0874 7.22481H76.2068V5.64782C76.2068 4.4498 76.3536 3.48404 76.6472 2.75056C76.9408 1.99263 77.3323 1.41807 77.8216 1.02688C78.3109 0.611236 78.8614 0.342294 79.473 0.220046C80.1091 0.0733487 80.7697 0 81.4547 0C82.8004 0 83.779 0.0855734 84.3906 0.25672V3.52072C84.1215 3.44737 83.8279 3.39847 83.5099 3.37402C83.2163 3.32512 82.8615 3.30068 82.4456 3.30068C81.8829 3.30068 81.3936 3.43515 80.9777 3.70409C80.5862 3.97303 80.3905 4.4987 80.3905 5.28108V7.22481H83.9503V10.3421H80.3905V26.1853H76.2068V10.3421H73.0874V7.22481Z" fill="white"/>
<path d="M102.426 21.9679C102.426 22.4813 102.487 22.8481 102.609 23.0681C102.756 23.2881 103.025 23.3982 103.417 23.3982C103.539 23.3982 103.685 23.3982 103.857 23.3982C104.028 23.3982 104.224 23.3737 104.444 23.3248V26.2221C104.297 26.271 104.102 26.3199 103.857 26.3688C103.636 26.4421 103.404 26.5032 103.159 26.5521C102.915 26.601 102.67 26.6377 102.426 26.6622C102.181 26.6866 101.973 26.6988 101.802 26.6988C100.946 26.6988 100.236 26.5277 99.673 26.1854C99.1103 25.8431 98.7433 25.2441 98.572 24.3884C97.7402 25.1952 96.7126 25.782 95.4893 26.1487C94.2905 26.5155 93.1284 26.6988 92.0029 26.6988C91.1466 26.6988 90.327 26.5766 89.5441 26.3321C88.7612 26.1121 88.0639 25.782 87.4523 25.3419C86.8651 24.8774 86.388 24.3028 86.021 23.6182C85.6785 22.9092 85.5073 22.0901 85.5073 21.161C85.5073 19.9875 85.7152 19.0339 86.1311 18.3005C86.5715 17.567 87.1342 16.9924 87.8193 16.5768C88.5288 16.1611 89.3117 15.8677 90.168 15.6966C91.0488 15.501 91.9295 15.3543 92.8103 15.2565C93.5688 15.1098 94.2905 15.012 94.9755 14.9631C95.6606 14.8898 96.26 14.7797 96.7738 14.633C97.312 14.4863 97.7283 14.2663 98.0219 13.9729C98.34 13.6551 98.499 13.1905 98.499 12.5793C98.499 12.0414 98.3644 11.6013 98.0953 11.259C97.8507 10.9167 97.5322 10.66 97.1408 10.4889C96.7738 10.2933 96.3579 10.171 95.893 10.1221C95.4282 10.0488 94.9878 10.0121 94.5719 10.0121C93.3975 10.0121 92.4311 10.2566 91.6727 10.7456C90.9142 11.2346 90.4861 11.9925 90.3882 13.0194H86.2045C86.2779 11.7969 86.5715 10.7823 87.0853 9.97543C87.5991 9.16859 88.2474 8.52068 89.0303 8.0317C89.8377 7.54271 90.743 7.20041 91.7461 7.00482C92.7492 6.80922 93.7767 6.71143 94.8287 6.71143C95.7584 6.71143 96.6759 6.80922 97.5812 7.00482C98.4864 7.20041 99.2941 7.51826 100.004 7.95835C100.738 8.39844 101.325 8.973 101.765 9.68203C102.206 10.3666 102.426 11.2101 102.426 12.2125V21.9679ZM98.2421 16.6868C97.606 17.1024 96.8227 17.3592 95.893 17.457C94.9633 17.5303 94.0336 17.6525 93.1039 17.8237C92.6635 17.897 92.2354 18.0071 91.8195 18.1538C91.4035 18.276 91.0365 18.4594 90.7185 18.7039C90.4004 18.9239 90.1435 19.2295 89.9478 19.6207C89.7766 19.9875 89.6909 20.4398 89.6909 20.9777C89.6909 21.4422 89.8255 21.8334 90.0946 22.1512C90.3637 22.4691 90.6818 22.7258 91.0488 22.9214C91.4402 23.0925 91.8561 23.2148 92.2965 23.2881C92.7614 23.3615 93.1773 23.3982 93.5443 23.3982C94.0091 23.3982 94.5111 23.337 95.0493 23.2148C95.5876 23.0926 96.0887 22.8847 96.5536 22.5913C97.0429 22.2979 97.447 21.9312 97.765 21.4911C98.0831 21.0266 98.2421 20.4642 98.2421 19.8041V16.6868Z" fill="white"/>
<path d="M106.927 7.22486H110.854V10.8923H110.927C111.05 10.3788 111.282 9.87763 111.625 9.38864C111.992 8.89965 112.42 8.45956 112.909 8.06837C113.423 7.65273 113.986 7.32266 114.597 7.07817C115.209 6.83367 115.833 6.71143 116.469 6.71143C116.958 6.71143 117.288 6.72365 117.46 6.7481C117.655 6.77255 117.851 6.797 118.047 6.82145V10.8556C117.753 10.8067 117.447 10.77 117.129 10.7456C116.836 10.6967 116.542 10.6722 116.249 10.6722C115.539 10.6722 114.866 10.8189 114.23 11.1123C113.619 11.3813 113.08 11.7969 112.615 12.3592C112.151 12.8971 111.784 13.5695 111.514 14.3763C111.245 15.1832 111.111 16.1122 111.111 17.1636V26.1854H106.927V7.22486Z" fill="white"/>
<path d="M132.212 15.0365C132.163 14.3763 132.016 13.7406 131.772 13.1294C131.552 12.5182 131.234 11.9925 130.818 11.5524C130.426 11.0879 129.937 10.7211 129.35 10.4522C128.787 10.1588 128.151 10.0121 127.441 10.0121C126.707 10.0121 126.035 10.1466 125.423 10.4155C124.836 10.66 124.322 11.0145 123.882 11.4791C123.466 11.9192 123.123 12.4448 122.854 13.0561C122.609 13.6673 122.475 14.3274 122.45 15.0365H132.212ZM122.45 17.787C122.45 18.5205 122.548 19.2295 122.744 19.9141C122.964 20.5987 123.282 21.1977 123.698 21.7112C124.114 22.2246 124.64 22.6402 125.276 22.9581C125.912 23.2515 126.671 23.3982 127.551 23.3982C128.775 23.3982 129.753 23.1414 130.487 22.628C131.246 22.0901 131.808 21.2955 132.175 20.2442H136.139C135.919 21.2711 135.539 22.1879 135.001 22.9948C134.463 23.8016 133.815 24.4862 133.056 25.0485C132.298 25.5864 131.441 25.9898 130.487 26.2588C129.558 26.5521 128.579 26.6988 127.551 26.6988C126.059 26.6988 124.738 26.4543 123.588 25.9654C122.438 25.4764 121.459 24.7918 120.652 23.9116C119.869 23.0314 119.27 21.9801 118.854 20.7576C118.462 19.5352 118.267 18.1904 118.267 16.7235C118.267 15.3788 118.475 14.1074 118.891 12.9094C119.331 11.6869 119.943 10.6233 120.725 9.71871C121.533 8.78963 122.499 8.05614 123.625 7.51826C124.75 6.98037 126.022 6.71143 127.441 6.71143C128.934 6.71143 130.267 7.02927 131.441 7.66495C132.64 8.27619 133.631 9.09525 134.414 10.1221C135.197 11.149 135.76 12.3348 136.102 13.6795C136.469 14.9998 136.567 16.369 136.396 17.787H122.45Z" fill="white"/>
<path d="M139.576 7.22486H143.503V10.8923H143.577C143.699 10.3788 143.931 9.87763 144.274 9.38864C144.641 8.89965 145.069 8.45956 145.558 8.06837C146.072 7.65273 146.635 7.32266 147.246 7.07817C147.858 6.83367 148.482 6.71143 149.118 6.71143C149.607 6.71143 149.938 6.72365 150.109 6.7481C150.305 6.77255 150.5 6.797 150.696 6.82145V10.8556C150.402 10.8067 150.097 10.77 149.779 10.7456C149.485 10.6967 149.191 10.6722 148.898 10.6722C148.188 10.6722 147.516 10.8189 146.879 11.1123C146.268 11.3813 145.73 11.7969 145.265 12.3592C144.8 12.8971 144.433 13.5695 144.164 14.3763C143.895 15.1832 143.76 16.1122 143.76 17.1636V26.1854H139.576V7.22486Z" fill="white"/>
</svg>
